<svg viewBox="0 0 276 291" xmlns="http://www.w3.org/2000/svg" xmlns:xlink="http://www.w3.org/1999/xlink"><defs><linearGradient x1="50%" y1="-39%" x2="50%" y2="59.8%" id="b"><stop stop-color="#8182D8" offset="0%"/><stop stop-color="#31328B" offset="100%"/></linearGradient><linearGradient x1="60.2%" y1="23.2%" x2="52.1%" y2="76%" id="f"><stop stop-color="#8A8CBF" stop-opacity="0" offset="0%"/><stop stop-color="#52548B" offset="100%"/></linearGradient><filter x="-2.3%" y="-1%" width="103%" height="103%" filterUnits="objectBoundingBox" id="d"><feOffset dx="-10" dy="5" in="SourceAlpha" result="shadowOffsetOuter1"/><feColorMatrix values="0 0 0 0 0.491201287 0 0 0 0 0.378715701 0 0 0 0 1 0 0 0 0.283708479 0" in="shadowOffsetOuter1"/></filter><filter x="-21.6%" y="-26%" width="143.1%" height="151.9%" filterUnits="objectBoundingBox" id="g"><feGaussianBlur stdDeviation="30" in="SourceGraphic"/></filter><path id="a" d="M1 38l12-21 3-2-2-10 16 2 22-2 35-1 9-4 40 9 9-5 75 3 22-1 5 3 5 8 5 3 3 25 3-31 3-2 8 4-1 60-3 5h-5l-1-5v5l8 3 1 7 2 16-5 14 2 3v23l-4 21h-5l-3 7v10l1-9 4-5 8 2 3 8-4 15 1 16-2 7 1 22-2 25h-5l1 10-12 10h-15l-14 1-13 3-25-3-6-2-6 5-14-3h-13l-6-2v-6l25-7-15 2-13 4v8l-5 3h-21l-11-8-19 3-18 2-11-4-10-2-10 1-20 7-11-16 5-14-1-6 5-3h22l6 1 5 6-5-7-6-2-20-3-10-18 4-20 2-38 5-16-1-5h-4l-5-19 4-4-2-8 5-23-5-10 12-7 4-18V48l-3-14 2 15-2 17-4 9-8 1-6-21z"/><path d="M133 281l-17 3 19-2 11-11-13 10zm-28 5l10-1h-9l-1 1zm26-127l-16-4c-14 11-15 30-41 27l-14-8c-25-4-34 12-71-3 7-19 62-24 85-34 6-3 5-9 13-12 19-5 54-8 65-16h4c1 15-15 27-8 39-4 5-9 8-17 11zm-51 63c-9 3-20 2-29 4-3 1-26-2-35-4L2 200l1-1c13-13 50-3 76-8 23-5 24-21 36-32 11 2 17 2 28 0l-11 22-52 41zm-212-34h3l-4 1 1-1zm-1 23c-45 11-37-15-15-10l15 8v2zM41-31h1l-1 2v-2zm419 8c-20-2-49 3-64-3-24-12-233-45-220-26 51 11 79 21 81 30 1 3-55 42-54 44l1 10c-1 4-12 15-35 35l44-29c27-19 87-62 88-54 2 10-21 25-23 40-4 24-15 51-38 68-16 12-33 30-61 34l11-19a133715 133715 0 0 0-7-18l7-27h-2l-18 11-19 3c-19 9-32 27-55 33l-35 3c-12 3-13 5-27 3 0-5 3-1-2-4C-6 91-15 30-5 38l30 20c3 2-14-16-11-15l55 31c10 6 40 9 41 8 21-7-19-2-29-12L57 47C42 29 33 17 31 10c-4-9-3-20 1-33L50 7l22 17 10 6 3-1C63-5 36-50 2-77c-16-13-20-31-40-41l20 25 5 15 20 9-3 8c10 8 17 17 27 24v4h-1L3-49l-2-2h-2l16 26c1 6-7 7-9 10-3 6 4 10 5 14L4 13C-10 5-10-5-30-11c-3-8-12-23-11-28-3 2-2 1-2 4-21-2-162 280-137 275h3c-4-2-14-1-21-2l-1-1 25-8 71 12c17 9 50 54 47 72-12 4-27 11-40 8l-4 1 13 17c1 10-1 12-8 17v2l35 3 59 21c-16-21-76-9-73-51l33-12c6-5-2-15-5-22l7-3-9-24v-1c33-9 61-1 90 4l-3 7c30 1 33 11 54 20l13-14-18 2c-7-7-15-21-28-27-15-8-87-1-110-7-17-6-27-19-42-27v-3l22-1 2-1c-24-9-38-17-53-32 4-12 20-1 24-13 16 1 38 7 45 17l4 1h1l-3-8c10 2 12 7 17 11 3 1 1 0 2-2h1l11 12v2c5-2 2-1 2-6l2-1h4l15 16 6 17v2l25-5c15-3 31 2 44 4 12-7 16-18 25-27 14-16 67-48 103-50-3-32 62-58 94-72l58-50c4-3 2 38 1 83 0 3-61 4-98 21 23 8-27 40-27 42-1 4 0 9 1 13 1 1-17 28-71 51l26 2c54-36 90-47 115-45 44 2-119 96-116 95 3-2 57-29 65-29 7 0-33 26-25 25 33-1 76-7 106-42 81-93 134-277 124-277zM58-52c6 6 13 10 17 18h4c-2-7-9-13-16-16 1-6 6-11 1-14l-6 12zM-3-68c3-1 5-1 3-2l-3 2zm150 335l-2 3c3-2 1-1 2-3zm14-8h-5l-5 6 10-6z" id="e"/></defs><g fill="none" fill-rule="evenodd"><mask id="c" fill="#fff"><use xlink:href="#a"/></mask><use fill="url(#b)" xlink:href="#a"/><g opacity=".4" mask="url(#c)"><use fill="#000" filter="url(#d)" xlink:href="#e"/><use fill="url(#f)" style="mix-blend-mode:multiply" xlink:href="#e"/></g><path fill="#9C9DD5" mask="url(#c)" d="M12 5l36 7 4 9v-9l13-1 22-4 9-7 4 6 9 3 11 1 4 9 1-8 12 2V9l8-5 4 4 22-1 4 4v8l4-8-1-2 25 3 20-3h14l9-5-42-5L47-4 22-3l-9 4-1 3zM6 37l11-16-3-8-19 24z"/><path fill="#050218" opacity=".5" mask="url(#c)" d="M6 83l6 3 10-9 1-19-5 17-16 9v60l1-15 12-5 5-19-2 2-4 15-8 2zm3 175l-4-5 19-2 5 2 8-2 8 5-5-7-39-4 3 47 1-15 12-4 11-7-12 5-9-1z"/><path fill="#050218" opacity=".5" mask="url(#c)" transform="rotate(-93 221 269)" d="M206 270l-4-5 19-2 5 2 8-2 8 5-6-7-31-3-2-7 2-12-2-2-3 22 2 9v16l-1 16 4-2-1-9 10-4 10-7-12 5h-7z"/><path fill="#050218" opacity=".5" mask="url(#c)" transform="rotate(-93 159 269)" d="M151 258l-2-7-3 7 7 28 19 1-19-3v-5l2-2z"/><path fill="#9C9DD5" mask="url(#c)" d="M248 8l2 11 6 3 3 2 3-9 1-1 4 4 1-2h8l-5-11z"/><path fill="#050218" opacity=".5" mask="url(#c)" d="M272 84l-6 2-11-5-1-22 5 21 5 1 12 1z"/><path fill="#8C0AD0" style="mix-blend-mode:overlay" opacity=".7" filter="url(#g)" mask="url(#c)" d="M-35 290L93 158l172-95 52-81-114-38H66l-69 6-98 100z"/><path fill="#050218" opacity=".5" mask="url(#c)" d="M276 182l-2-11-9-1-4 7 1-4-1 3 5-2 6 2z"/></g></svg>