<svg viewBox="0 0 1920 1477" xmlns="http://www.w3.org/2000/svg"><defs><linearGradient x1="50%" y1="9.5%" x2="50%" y2="100%" id="a"><stop stop-color="#030109" offset="0%"/><stop stop-color="#030109" stop-opacity="0" offset="100%"/></linearGradient></defs><g fill="none"><path fill="url(#a)" opacity=".7" d="M57 299h1920v1477H57z" transform="translate(-57 -299)"/><g transform="translate(-56 -299)"><path d="M791 607a2 2 0 1 1 0 4 2 2 0 0 1 0-4zm-82-21a3 3 0 1 1 0 6 3 3 0 0 1 0-6zm26-8a2 2 0 1 1 0 3 2 2 0 0 1 0-3zm64-21a2 2 0 1 1 0 4 2 2 0 0 1 0-4zm77-20a3 3 0 1 1 0 6 3 3 0 0 1 0-6zm-121-20a5 5 0 1 1 0 10 5 5 0 0 1 0-10zm85 5a3 3 0 1 1 0 5 3 3 0 0 1 0-5zm-145 0a2 2 0 1 1 0 3 2 2 0 0 1 0-3zm73-16a3 3 0 1 1 0 5 3 3 0 0 1 0-5zm-95-13a4 4 0 1 1 0 8 4 4 0 0 1 0-8zm142-10a2 2 0 1 1 0 4 2 2 0 0 1 0-4zm53-10a5 5 0 1 1 0 10 5 5 0 0 1 0-10zm-145-14a2 2 0 1 1 0 4 2 2 0 0 1 0-4zm-16 2a1 1 0 1 1 0 2 1 1 0 0 1 0-2zm77-29a3 3 0 1 1 0 5 3 3 0 0 1 0-5zm-113-10a2 2 0 1 1 0 4 2 2 0 0 1 0-4zm62-3a3 3 0 1 1 0 6 3 3 0 0 1 0-6zm1039 94a1 1 0 1 1 0 2 1 1 0 0 1 0-2zm-49-13a2 2 0 1 1 0 4 2 2 0 0 1 0-4zm15-5a1 1 0 1 1 0 2 1 1 0 0 1 0-2zm38-12a1 1 0 1 1 0 2 1 1 0 0 1 0-2zm46-12a2 2 0 1 1 0 4 2 2 0 0 1 0-4zm-72-12a3 3 0 1 1 0 6 3 3 0 0 1 0-6zm51 3a2 2 0 1 1 0 3 2 2 0 0 1 0-3zm-87 0a1 1 0 1 1 0 2 1 1 0 0 1 0-2zm44-9a2 2 0 1 1 0 3 2 2 0 0 1 0-3zm-56-8a3 3 0 1 1 0 5 3 3 0 0 1 0-5zm84-6a1 1 0 1 1 0 2 1 1 0 0 1 0-2zm31-6a3 3 0 1 1 0 6 3 3 0 0 1 0-6zm-86-8a1 1 0 1 1 0 2 1 1 0 0 1 0-2zm-9 1a1 1 0 1 1 0 1 1 1 0 0 1 0-1zm46-17a2 2 0 1 1 0 3 2 2 0 0 1 0-3zm-31-8a2 2 0 1 1 0 4 2 2 0 0 1 0-4zm-37 2a1 1 0 1 1 0 2 1 1 0 0 1 0-2zm-400 160a1 1 0 1 1 0 2 1 1 0 0 1 0-2zm-49-13a2 2 0 1 1 0 4 2 2 0 0 1 0-4zm15-5a1 1 0 1 1 0 2 1 1 0 0 1 0-2zm38-12a1 1 0 1 1 0 2 1 1 0 0 1 0-2zm46-12a2 2 0 1 1 0 4 2 2 0 0 1 0-4zm-72-12a3 3 0 1 1 0 6 3 3 0 0 1 0-6zm51 3a2 2 0 1 1 0 3 2 2 0 0 1 0-3zm-87 0a1 1 0 1 1 0 2 1 1 0 0 1 0-2zm44-9a2 2 0 1 1 0 3 2 2 0 0 1 0-3zm-56-8a3 3 0 1 1 0 5 3 3 0 0 1 0-5zm84-6a1 1 0 1 1 0 2 1 1 0 0 1 0-2zm31-6a3 3 0 1 1 0 6 3 3 0 0 1 0-6zm-86-8a1 1 0 1 1 0 2 1 1 0 0 1 0-2zm-9 1a1 1 0 1 1 0 1 1 1 0 0 1 0-1zm46-17a2 2 0 1 1 0 3 2 2 0 0 1 0-3zm-31-8a2 2 0 1 1 0 4 2 2 0 0 1 0-4zm-37 2a1 1 0 1 1 0 2 1 1 0 0 1 0-2zm-658 90a1 1 0 1 1 0 2 1 1 0 0 1 0-2zm-49-13a2 2 0 1 1 0 4 2 2 0 0 1 0-4zm15-5a1 1 0 1 1 0 2 1 1 0 0 1 0-2zm38-12a1 1 0 1 1 0 2 1 1 0 0 1 0-2zm46-12a2 2 0 1 1 0 4 2 2 0 0 1 0-4zm-72-12a3 3 0 1 1 0 6 3 3 0 0 1 0-6zm51 3a2 2 0 1 1 0 3 2 2 0 0 1 0-3zm-87 0a1 1 0 1 1 0 2 1 1 0 0 1 0-2zm44-9a2 2 0 1 1 0 3 2 2 0 0 1 0-3zm-56-8a3 3 0 1 1 0 5 3 3 0 0 1 0-5zm84-6a1 1 0 1 1 0 2 1 1 0 0 1 0-2zm31-6a3 3 0 1 1 0 6 3 3 0 0 1 0-6zm-86-8a1 1 0 1 1 0 2 1 1 0 0 1 0-2zm-9 1a1 1 0 1 1 0 1 1 1 0 0 1 0-1zm46-17a2 2 0 1 1 0 3 2 2 0 0 1 0-3zm-31-8a2 2 0 1 1 0 4 2 2 0 0 1 0-4zm-37 2a1 1 0 1 1 0 2 1 1 0 0 1 0-2zm-99 326a1 1 0 1 1 0 2 1 1 0 0 1 0-2zm-50-14a2 2 0 1 1 0 4 2 2 0 0 1 0-4zm15-4a1 1 0 1 1 0 2 1 1 0 0 1 0-2zm40-13a1 1 0 1 1 0 2 1 1 0 0 1 0-2zm47-13a2 2 0 1 1 0 4 2 2 0 0 1 0-4zm-74-12a3 3 0 1 1 0 6 3 3 0 0 1 0-6zm52 3a2 2 0 1 1 0 3 2 2 0 0 1 0-3zm-89 0a1 1 0 1 1 0 2 1 1 0 0 1 0-2zm45-9a2 2 0 1 1 0 3 2 2 0 0 1 0-3zm-58-9a3 3 0 1 1 0 5 3 3 0 0 1 0-5zm87-5a1 1 0 1 1 0 2 1 1 0 0 1 0-2zm32-7a3 3 0 1 1 0 6 3 3 0 0 1 0-6zm-89-8a1 1 0 1 1 0 2 1 1 0 0 1 0-2zm-9 1a1 1 0 1 1 0 1 1 1 0 0 1 0-1zm47-18a2 2 0 1 1 0 3 2 2 0 0 1 0-3zm-32-8a2 2 0 1 1 0 4 2 2 0 0 1 0-4zm-38 2a1 1 0 1 1 0 2 1 1 0 0 1 0-2zm-142 34a2 2 0 1 1 0 4 2 2 0 0 1 0-4zm-82-21a3 3 0 1 1 0 6 3 3 0 0 1 0-6zm26-8a2 2 0 1 1 0 3 2 2 0 0 1 0-3zm64-21a2 2 0 1 1 0 4 2 2 0 0 1 0-4zm77-20a3 3 0 1 1 0 6 3 3 0 0 1 0-6zm-121-20a5 5 0 1 1 0 10 5 5 0 0 1 0-10zm85 5a3 3 0 1 1 0 5 3 3 0 0 1 0-5zm-145 0a2 2 0 1 1 0 3 2 2 0 0 1 0-3zm73-16a3 3 0 1 1 0 5 3 3 0 0 1 0-5zm-95-13a4 4 0 1 1 0 8 4 4 0 0 1 0-8zm142-10a2 2 0 1 1 0 4 2 2 0 0 1 0-4zm53-10a5 5 0 1 1 0 10 5 5 0 0 1 0-10zm-145-14a2 2 0 1 1 0 4 2 2 0 0 1 0-4zm-16 2a1 1 0 1 1 0 2 1 1 0 0 1 0-2zm77-29a3 3 0 1 1 0 5 3 3 0 0 1 0-5zM63 494a2 2 0 1 1 0 4 2 2 0 0 1 0-4zm62-3a3 3 0 1 1 0 6 3 3 0 0 1 0-6zm1418 63a2 2 0 1 1 0 4 2 2 0 0 1 0-4zm-82-21a3 3 0 1 1 0 6 3 3 0 0 1 0-6zm26-8a2 2 0 1 1 0 3 2 2 0 0 1 0-3zm64-21a2 2 0 1 1 0 4 2 2 0 0 1 0-4zm77-20a3 3 0 1 1 0 6 3 3 0 0 1 0-6zm-121-20a5 5 0 1 1 0 10 5 5 0 0 1 0-10zm85 5a3 3 0 1 1 0 5 3 3 0 0 1 0-5zm-145 0a2 2 0 1 1 0 3 2 2 0 0 1 0-3zm73-16a3 3 0 1 1 0 5 3 3 0 0 1 0-5zm-95-13a4 4 0 1 1 0 8 4 4 0 0 1 0-8zm142-10a2 2 0 1 1 0 4 2 2 0 0 1 0-4zm53-10a5 5 0 1 1 0 10 5 5 0 0 1 0-10zm-145-14a2 2 0 1 1 0 4 2 2 0 0 1 0-4zm-16 2a1 1 0 1 1 0 2 1 1 0 0 1 0-2zm77-29a3 3 0 1 1 0 5 3 3 0 0 1 0-5zm-113-10a2 2 0 1 1 0 4 2 2 0 0 1 0-4zm62-3a3 3 0 1 1 0 6 3 3 0 0 1 0-6zm411 418a2 2 0 1 1 0 4 2 2 0 0 1 0-4zm-82-21a3 3 0 1 1 0 6 3 3 0 0 1 0-6zm26-8a2 2 0 1 1 0 3 2 2 0 0 1 0-3zm64-21a2 2 0 1 1 0 4 2 2 0 0 1 0-4zm77-20a3 3 0 1 1 0 6 3 3 0 0 1 0-6zm-121-20a5 5 0 1 1 0 10 5 5 0 0 1 0-10zm85 5a3 3 0 1 1 0 5 3 3 0 0 1 0-5zm-145 0a2 2 0 1 1 0 3 2 2 0 0 1 0-3zm73-16a3 3 0 1 1 0 5 3 3 0 0 1 0-5zm-95-13a4 4 0 1 1 0 8 4 4 0 0 1 0-8zm142-10a2 2 0 1 1 0 4 2 2 0 0 1 0-4zm53-10a5 5 0 1 1 0 10 5 5 0 0 1 0-10zm-145-14a2 2 0 1 1 0 4 2 2 0 0 1 0-4zm-16 2a1 1 0 1 1 0 2 1 1 0 0 1 0-2zm77-29a3 3 0 1 1 0 5 3 3 0 0 1 0-5zm-113-10a2 2 0 1 1 0 4 2 2 0 0 1 0-4zm62-3a3 3 0 1 1 0 6 3 3 0 0 1 0-6zm-519 132a2 2 0 1 1 0 4 2 2 0 0 1 0-4zm-82-21a3 3 0 1 1 0 6 3 3 0 0 1 0-6zm26-8a2 2 0 1 1 0 3 2 2 0 0 1 0-3zm64-21a2 2 0 1 1 0 4 2 2 0 0 1 0-4zm77-20a3 3 0 1 1 0 6 3 3 0 0 1 0-6zm-181-15a2 2 0 1 1 0 3 2 2 0 0 1 0-3zm75-20a3 3 0 1 1 0 5 3 3 0 0 1 0-5zm-97-9a4 4 0 1 1 0 8 4 4 0 0 1 0-8zm-122-31a2 2 0 1 1 0 4 2 2 0 0 1 0-4zm62-3a3 3 0 1 1 0 6 3 3 0 0 1 0-6zm110 0a2 2 0 1 1 0 4 2 2 0 0 1 0-4zm-16 2a1 1 0 1 1 0 2 1 1 0 0 1 0-2zm77-29a3 3 0 1 1 0 5 3 3 0 0 1 0-5z" fill="#9494D9"/><circle fill="#6468E5" cx="1640" cy="759" r="123"/><circle fill="#6468E5" cx="1640" cy="759" r="123"/><circle fill="#24276f" cx="1640" cy="759" r="123"/><path d="M2002 1051c-15 8-7 0-22 12l-19 18-4 5c-4 8 0 11-19 16-9 2 1-14 2-15l7-7 7-9c1-4-1-8 1-12l8-4 13-8c10-7 7-6 16-15 4-3 13-5 18-10l-1-1c-6 0-13 4-17-1-2-2-1-6-3-7-7-4-16-1-24-22-1-2-4-1-4-4a14 14 0 0 0-4-6l-6-2c-2-1 0-4-2-4a65 65 0 0 0-11 4c-3 1-5 4-8 4h-15l-23 5-23 7 5-11c11-5 19-5 26-8 2-1 1-4 2-6l3-2 7 1 26-8c1-1-1-3-3-3-3-3-8-4-11-6s-4-7-7-9c-4-3-8-4-13-5h-13l-24 2-15 2h-11l-7 2c-4 0-8 1-11-1-3-1-8-2-10-5-3-2 1-3-8-8s-11-9-15-16c-1-1 7-5 8-5l8 7c8 5 9 7 18 10 6 2 15-2 23-1l26 2c6 0 13-2 19-4l9-3h7l4-1 13 1c14 6 13 15 23 22 6 5 15 8 20 13 11 12 5 13 8 23 1 3 26 17 29 17 3 1 8 0 12-1 3-1 5-4 8-3 2 0 2 2 4 3s3 3 5 2c11-6 15-49 3-47-15 3-24 11-34 3-1-1-3-2-2-3 7-8 20-11 8-15l-7-2-6-4c-5-3-10-6-16-7l-18-4c-2-1-3-4-4-6l1-10c-1-2-1-4-3-5-7-4-15-7-22-12-4-2-6-6-9-8l-3-1-12 2-4 1c-4-1-8-1-11-3l-7-5-11-5-17-13-14-7c-8-2-1-5-9-7-4 0-8-11-12-12-2 0-2-2-4-3-8-4-21-3-29-7-8-5-25-24-23-23l9 4 4 3 11 6 9 4a56 56 0 0 0 12 2c3 1 7-1 10-1l2 1c5 3 9 8 15 11l5 1 8-4h2c4 3 7 6 12 8 2 1 6 1 8 3v7l4 4c9 2 17 6 27 7 3 0 5-2 8-4 2-1 3-4 3-5-2-6-6-12-10-18l-10-12v-5c-2-6-9-10-15-11l-24-4c-4 0-7-1-10-3-17-10 11-18-11-26-10-3-34 6-41 1-8-4-4-11 6-5 6 4 35-12 38-12l-2-1-5-8-9-16-3-2-3-3 1-4 4-4 6-3c4-6 6-12 8-18l4-14 9-12 8-7c2-3 0-6 3-9 1-1 2 2 2 3l-1 5c-4 9-12 19-15 28-2 8 3 13 1 21-1 3-6 5-8 8l-1 2 3 8c4 9 6 18 13 25 3 4-2 15 4 17 5 1 10 1 14 3 2 0 3 1 4 3 3 2 4 6 6 8l9 7 18 7c3 2 3 6 5 8l8 10c4 5 6 11 11 15 5 5 12 9 18 13l1 1c1-1 1-2 2-1l4 2 2 3c2 5 2 11 5 16 5 6 12 11 19 16l5 4 11 5 30 17c4 2 8 0 7-3-2-4-2-8-2-13l2-3c20 1-24 165-37 172z" fill="#0B0B24"/><path d="M112 675l1-2h1a770 770 0 0 0 36-41v-1h1a801 801 0 0 0 15-20c0-5 4-9 8-11a830 830 0 0 0 22-31 7 7 0 0 1 0-3c0-2 1-4 4-5a19 19 0 0 1 1 0 835 835 0 0 0 7-11 8 8 0 0 0 0-1h1a861 861 0 0 0 4-7c64-104 118-260 104-221a1135 1135 0 0 1-89 201c-2 28 8 55 28 75v1l-1 1a286 286 0 0 0 11-3c8-15 33-53 39-69 1-1 3 0 3 1-6 15-31 53-38 66l38-17c1 0 2 2 0 3l-40 18a420 420 0 0 1-17 28 66 66 0 0 0 19 36l29 3c2 0 1 3-1 2l-31-3c-18 3-39 7-48 24-11 19-8 42-13 62v-1l6 30 1 2c3 18 6 35 6 53 0 1-2 2-2 0 0-20-4-39-8-58a1188 1188 0 0 0-5-25 1 1 0 0 1-1-1c-7-14-16-27-26-39-30 27-63 50-98 69-22 11-10 3 14-11 29-17 57-37 82-60a149 149 0 0 0-6-6c-14-13-33-29-54-27-58 62-39 37-3-1zm155-13h2v-1l-2 1zm-32-14l6 6 25 7c-9-9-15-20-17-32a429 429 0 0 1-14 19zm-40 59l1 4 4 5-1 5 1 2 5 21c4-20 1-44 14-61 11-13 26-17 42-20a235 235 0 0 1-19-6l-1 1a37 37 0 0 0-12-2 441 441 0 0 1-27 31c4 3 6 7 3 10s-9 6-10 10zm56-85a415 415 0 0 0 13-23 290 290 0 0 1-9 3h-1c-3 7-4 13-3 20zm-23 13c1 4 3 7 6 11a429 429 0 0 0 14-21 47 47 0 0 1 3-22l-2 1h-1a28 28 0 0 1-1 0 288 288 0 0 1-11 3h-1c-7 7-10 18-7 28zm12 21v1h1l-1-1zm-26-100a1 1 0 0 1 0 1c-1 10 3 20 9 28s13 15 22 17l7-2 1-2c1-1-4-5-5-6a95 95 0 0 1-23-66 906 906 0 0 1-8 14 70 70 0 0 0-3 16zm19 95l3 1a102 102 0 0 1-2-2l-1 1zm-2 3h2l-1-1h-1v1zm-16-81c2 12 9 24 22 30l1 1 5-1c-9-3-17-11-22-18l-6-12zm-23 49c-1 3 0 6 1 9a233 233 0 0 0 37 19l2-2c-4-5-7-11-8-17 0-8 1-17 6-23a289 289 0 0 1-14 3l-1 1c-5 1-11 1-16 3-3 1-6 3-7 7zm-10 28v12a1122 1122 0 0 1 5 16l1 1a79 79 0 0 1 6 3l2-7c3-5 6-10 11-13 6-5 13-7 20-8l2-2a236 236 0 0 1-37-18l-1-1c-8 0-9 11-9 17zm14 32v1l4 2a450 450 0 0 0 25-28c-6 1-12 3-16 7-6 4-11 10-12 17l-1 1zm38-78v1h1l1-1v1-2a24 24 0 0 0-2 1zm-34-31l3 3 4 8c0 6-4 10-10 11 3 7 10 10 17 14a288 288 0 0 0 20-4v-1c-20-12-26-35-21-57a793 793 0 0 1-3 5c1 3-1 8-5 9h-1v1l-4 11zm3 176zm-24-39a165 165 0 0 1 22 31l-4-19a1142 1142 0 0 0-6-21v-1l-1-1-1 1a484 484 0 0 1-10 10zm15-16a90 90 0 0 1 0 5l-1 1 2 5 4-5c4-3 9-7 3-12a80 80 0 0 0-1 0 435 435 0 0 1-5 4l-2 2zm3 20a959 959 0 0 0 0 2v-2zm-1-30l-1 6a461 461 0 0 0 4-4 43 43 0 0 0-3-2zm17-73l1 1v-1h-1zm-25 69v2l4 12v-1l2-10h-1l-5-3zm-5-82v1l4 7 7 5 15-2c-6-3-12-7-14-13l-12 2zm-65 75c19 0 37 14 50 26a168 168 0 0 1 9 9 467 467 0 0 0 12-12c-7-11-16-22-28-28s-27-7-39 1h-1a676 676 0 0 1-4 4h1zm7-9c12-5 25-4 36 1 12 6 21 16 27 26a1142 1142 0 0 0-5-17c-4-8-10-16-18-21-7-4-17-6-25-3l-6 5-1 1a751 751 0 0 1-8 8zm71-73l1 3 7-4c5-7-1-11-5-16l-1 3c-1 4-3 9-2 14zm-14 33l8 5c-2-5-1-10 4-14l4-2h-4a1 1 0 0 1-1 1l-7 1c-5 2-5 6-4 9zm27-71c0 3-1 5-4 7a888 888 0 0 0 4-7zm-28 115l1 1v-1a1 1 0 0 1-1 0zm-1-6a146 146 0 0 1 1 5l-1-5zm-6-25l1 2 4 13c0-9 1-19 9-21l-7-5c-5 0-6 7-7 11zm9-40a178 178 0 0 1 9-2h2a16 16 0 0 1 0-3c-1-6 1-13 3-20a841 841 0 0 1-13 19 17 17 0 0 0-1 6zm-15 15l22-1-4-3-4-5a20 20 0 0 1-1-4l-4 1a793 793 0 0 1-8 12h-1zm29-45a847 847 0 0 0 4-5c-3 1-5 2-4 5zm-57 81c6-3 14-4 20-2 8 2 15 7 19 14a1130 1130 0 0 0-6-20h-2c-2-9-11-12-19-7a784 784 0 0 1-12 15zm14-1a29 29 0 0 1 11 4 44 44 0 0 1 12 11l1 1c-5-9-15-15-24-16zm15-33v1a231 231 0 0 0 10 7c-1-3 0-5 2-7l1-1h-13zm-2 1l1 3 5 15c1-4 2-8 5-9a233 233 0 0 1-11-9zm10-16l4-1v-3a601 601 0 0 1-3 4h-1zm-6 40h1v-2l-1 2zm-1-7a1134 1134 0 0 0-5-15 776 776 0 0 1-11 13l2-2c5-1 10 1 14 4zm-2-23z" fill="#0C0C29"/><path d="M1841 589c-30 1-135 68-146 75-14 7-8-1-21 12-6 5-11 11-15 17l-4 6c-2 9 4 14-16 17-8 1-2-17-1-18l6-7c2-3 4-7 4-10 1-5-3-10-1-14 1-3 5-2 7-3l11-9c10-7 6-5 14-15 3-3 13-5 16-10l-1-1c-6-1-13 2-18-4-3-2-3-7-5-9-9-6-17-3-31-29-1-2-4-2-6-5a27 27 0 0 0-5-7c-2-2-4-4-6-4-3-1-2-5-4-4a47 47 0 0 0-11 2c-2 1-4 4-7 4-5 1-10-2-16-2l-23 2c-8 2-15 5-23 6l3-13c11-4 19-3 25-5 2-1 1-5 1-8l2-2c3 1 5 3 8 3l25-6c2-1-1-3-3-5-4-3-9-4-13-8-4-3-6-8-10-12-4-3-10-5-15-7-4-2-9-2-14-2l-25-1-15 1-11-2c-3 0-5 2-8 1-4 0-8 0-11-2s-10-4-12-7c-3-3 0-4-10-11-10-6-15-13-21-22l8-4 10 10c10 7 11 9 22 14 7 3 15 0 23 1 10 1 19 5 29 6 6 1 13 0 19-1 3-1 5-3 8-3l8 1h4c5 0 10 0 14 2 16 9 17 20 30 30 8 6 17 11 24 18 14 15 8 15 14 28 2 4 32 24 35 25 4 1 9 0 13-1 2 0 5-3 7-2 3 0 4 4 6 5 1 1 4 3 5 2 10-5 19-11 27-18l4-4 10-8-1-1c-7-4-15-6-23-9-9-4-14-16-25-15-15 2-23 9-36-2-1-1-3-2-2-3 5-8 18-10 4-17l-8-2-8-7c-5-4-11-8-18-11-6-3-14-3-20-6l-5-8-3-12-3-6-27-17-12-12-3-1-11 2-6-1-11-4-9-7-13-8c-8-5-14-12-22-18l-16-10-27-10-14-2-5-4c-9-7-19-12-28-18-10-7-18-15-27-23l-8-4a181 181 0 0 0-23-11h-12l1-1-5-7-7-16c-5-9-11-18-18-26-7-7 8-11 14-5 8 8 17 14 24 23l11 15 9 8c1 1 3 3 5 3l8 2c3 0 5 2 7 3l11 6 5 5 13 9 11 6 14 4h9l3 1 18 16 6 1 7-4 2 1 15 11c3 2 7 2 9 5 2 2 1 6 3 9l5 4c9 4 19 9 30 12l7-3c2-2 2-5 2-6-4-8-10-16-15-23l-14-16-1-5c-3-7-12-13-19-16l-26-7-11-5c-21-15-4-10-28-22-12-6-35 1-44-5-9-7-15-17-24-25-5-5 23-6 34 2 8 6 29 8 32 8l-2-1-7-10c-5-7 16 3 25 12 5 6 12 8 19 11l15 5 6 4 8 11 11 10c7 4 15 6 21 11 3 2 4 6 7 9l11 14 15 19c7 7 15 12 23 18l1 1 2-1 4 4 3 3c4 6 6 14 10 19 7 9 16 15 24 23l6 5 13 7 36 24c5 3 9 9 14 7 4-1-6-5-7-9-3-5-4-10-5-15l1-4c21 4 10 9 21 20l7 4 8 1c4 4 4 10 8 14 8 8 16 14 25 20h5l5-2c4-1 8 0 12 1 12 3 23 10 35 13h7c4-2 6-7 10-8 9-3 19-3 28-4h19c5 0 9-2 14-1 4 0 6 3 9 4l11-1 7-1c5-2 9-6 15-8 6-3 13-4 20-4h12l21 5h16c2 0 5 0 5-2-2-8-16-40-24-46-10-7-20 2-29-17-2-3 6 0 10 0l11-4c5-2 8-10 13-8 13 4-46 148-150 149z" fill="#0B0B24"/><path d="M39 663c12-36-14-202-16-221-2-21 12-63 16-58 2 2 0 7 0 10l4 19c4 15 4 10 10 26 2 5 0 18 3 25h2c3-8 3-18 11-20 4-1 8 1 11-1 47-23-135 12 41-18 3-1 6 3 10 3l10-2 6-5 3-8a74 74 0 0 0 2-15c0-3-3-7-2-11 2-6 7-11 9-17l7-29c1-10 1-21 3-31 0-1 2 0 2 2 1 15-7 30 5 43l7 6c1 1 2 2 1 4l-5 7-5 34c1 2 5 0 6-1l14-11c4-2 11-1 15-4 6-3 10-8 14-13l8-16 10-29 6-18 5-13 2-10c2-4 4-9 7-11 4-3 9-1 13-3 4-1 17 1 8 11-6 7-6 19-10 27-5 11-13 20-18 31-3 7-4 15-5 24l-1 11c-1 3-4 5-5 9l-1 5c-2 5-4 11-8 14-15 14-26 9-41 17-10 6-18 15-28 18-21 8-18 0-33-1-5 0-36 23-39 27s-3 10-4 15c-1 3 1 8-1 10-1 3-5 2-7 4-2 1-4 2-4 5 0 15 4 29 7 43 0 3 2 5 3 8l3 17h2l18-23c8-8 21-7 25-21 4-19 0-33 16-41 1-1 3-3 4-1 6 11 3 28 15 15l6-7c3-3 6-3 9-5 6-5 13-9 18-15s9-14 15-20c2-2 6-2 9-2l13 5 7-1c10-6 19-15 28-21l17-7 2-2 3-15 3-6 8-11 11-7 12-10 27-15c6-3 11-8 16-13 8-8 15-16 21-25 4-5 5-11 8-16l6-3 29-23c11-7 55-9 53-6l-6 6-11 9-6 3-14 10-11 9-9 14-4 11-2 3c-7 4-16 7-23 12l-3 6c-1 4 1 7 1 11l-2 2-17 10-8 9-10-3-6 3c-9 9-17 18-24 29v10c1 3 4 6 5 6 10 0 19-2 29-4l21-6 6 2c8 0 18-6 23-13 7-8 12-18 18-27l9-10c23-16 11 3 33-19 11-10 12-42 22-49 11-7 23-8 34-13l21-14c9-5 51-10 48-7-217 194 191-181-44 39-12 11-28 13-40 21-9 6-19 30-21 33l2-2 13-3 26-3 4-3 6-1 4 2 3 7 1 8c5 7 12 13 18 18 5 4 12 6 16 11 5 4 7 10 10 15 2 4 2 9 5 13 2 3 7 3 10 6 1 2-4 2-5 2-2 0-4-1-5-3-10-9-18-23-29-30-8-6-18-3-26-8-4-2-4-9-6-13l-3-2h-12c-13 1-27 0-39 4-7 2-12 10-18 16-4 5-7 11-12 15-1 2-4 3-6 4-4 1-10 1-14 3l-14 7c-7 6-12 14-19 18-4 3-8 1-12 2l-18 6c-8 2-17 2-25 6-10 4-18 10-27 15l-1 2v2l-6 3-4 2c-8 0-16-3-23-1-12 3-22 9-32 14l-8 4-12 12-39 28c-4 3-12 5-12 12 0 5 8-4 12-3 6 0 12 1 18 4 1 0 3 2 2 3-12 23-13 7-27 13-3 1-5 3-7 6-2 2-2 7-5 8-5 2-11-1-16 1-11 5-21 11-30 18-2 1-2 4-2 6v7c-1 5-3 10-6 13-8 12-19 22-27 34-2 2-2 6-2 9 0 5 4 10 3 16-1 13-4 25-7 36l-7 22c-2 6-2 13-5 19-1 3-5 5-7 8l-4 13-1 9 2 23-4 26-5 14c-4 8-10 15-13 23-3 5-5 12-7 19 0 2-2 5 0 6 9 3 46 6 55 0 11-7 6-24 29-24 4 0-3 8-4 12-1 5-2 11-1 16 0 7 7 16 4 21-10 12-25 13-37 21l-7 8-18 15c-4 4-7 12-12 13-8 3-17-2-26-3l-6 1C2 999-1 788 39 663z" fill="#0C0C29"/><path d="M21 935c22-14-19-44 0-58 18-14 80-24 96-39 18-17 38-28 59-45 4-3 17-5 20-9 23-25 37-58 60-89 5-5 16-6 20-11 7-10 13-30 18-54 8-40-1-80 3-115 2-20 18-46 18-50 3-22 7-8 4-32-1-11-4-21-7-32l-3-8c-9-9-18-7-6-31 6-10 21 12 21 13 2 4 1 8 2 12 2 5 5 10 9 14s12 4 16 10c2 2-2 6-3 10v19c0 16 1 11 5 27 1 6-5 18-3 26h3c6-7 8-17 19-18 5 0 10 3 14 2 65-13-173-17 56-9 4 0 8 4 12 5a37 37 0 0 0 13 0c3 0 6-2 9-4l6-7a63 63 0 0 0 6-14c1-4-1-8 1-11 4-6 11-9 16-15 6-8 11-18 16-27l12-30c0-1 3 1 2 2-3 15-17 29-5 44 2 3 6 4 7 7 1 1 2 3 1 4-3 3-7 3-9 6l-15 32c1 3 6 1 8 1l19-8c7-1 15 1 22-1s14-6 20-10l14-14 21-26 12-17 10-11 5-9c4-4 7-9 12-10 5-2 11 1 16 0 6-1 12-4 18-4 15-2 30-2 45-2l-3 3-6 3c-15 4-32 5-46 12-9 6-12 17-20 25-9 9-21 16-30 26-6 6-10 15-14 22-2 4-1 8-3 11l-9 8-2 5c-5 4-9 10-15 12-22 10-35 3-56 8-13 3-26 10-39 12-29 3-24-4-42-8-6-2-51 15-56 18-4 3-7 9-9 14-2 3-1 8-3 10-3 2-7 1-11 2-2 1-6 1-6 4-3 14-3 29-3 44l2 8v17h2c10-5 19-12 29-18 11-6 28-2 36-15 11-18 9-33 31-37 2-1 5-2 6 0 5 12-4 28 15 18 3-2 5-5 9-6l13-4 26-10c9-5 15-12 24-16 4-2 8-1 12 0 6 1 10 5 16 7l8 1c14-4 27-11 41-15l23-4c1 0 2 0 3-2l8-13 5-6 13-8c5-3 11-3 16-5 6-2 12-6 18-7 12-4 25-5 37-9l25-10 33-20 13-14 9-2c15-5 28-12 43-16 15-5 31-7 46-11l11-4a245 245 0 0 0 30-17c4-3 7-8 10-12v2h12l24 6h42c13-1 25-7 38-8 28-1 56 3 84 2 11-1 21-6 32-8h13l60 9c16 2 32-1 47 1 4 1-7 4-11 5l-14 2a2497 2497 0 0 1-77 6c-10 1-19-1-29 1-11 2-22 9-33 11-5 1-9-3-14-3a922 922 0 0 0-68-1l-33 3-45 8c-9 1-17-1-25-1-6 0-11 1-17 3-2 0-5 1-7 3l-8 8-10 4-15 7-9 1-21 7-15 7c-6 3-11 7-16 12l-7 10-4 2-32 7-6 6-2 10-2 2-24 7c-5 1-8 6-13 6-4 0-7-4-11-5l-9 2c-13 7-26 14-37 23-3 3-3 7-3 11 0 3 3 6 4 6l38 3 28-2c3 0 4 3 7 4 10 1 24-3 32-8 11-7 20-16 30-23l13-8c34-11 15 5 48-12 16-8 26-39 40-43 15-5 31-3 46-6 11-2 20-7 30-9 13-3 27-4 40-8 9-3 17-10 26-11 12-2 24 1 37 1 32-1 62-28 92-24 2 1 5 1 5 3l-11 8-31 14-12 7c-22 9-49-4-73 5-4 1-6 6-10 8-325 145 287-138-67 29-17 8-37 6-55 12-12 4-32 25-35 28l3-1h17l33 2 6-2h7c2 0 4 1 5 3 2 2 2 4 3 7 0 3-3 6-1 8 4 8 11 15 17 21s13 9 18 15c4 4 6 10 8 16 2 5 0 10 3 14 2 4 8 4 10 8 1 2-4 1-6 1-3-1-5-2-6-4-10-11-16-26-28-36-8-7-22-6-31-13-4-3-2-9-4-14l-2-2-16-3c-16-2-33-6-50-4-9 1-18 7-26 12l-19 12-9 3h-19c-6 0-13 2-19 4-10 4-19 11-29 14-5 1-10-1-16-1l-24 2h-32c-13 2-26 6-39 10l-2 1v2c-2 2-5 2-8 2l-6 1c-9-2-19-6-29-6-14 1-29 5-43 8l-11 2-18 9-56 19c-7 3-17 3-19 10-1 5 11-2 17-1 7 1 13 4 20 7 1 1 4 3 3 4-22 20-18 4-39 7l-10 4c-3 2-4 7-8 7-7 2-14-3-21-2-15 2-29 6-42 11-2 1-3 4-4 6s0 5-2 7l-10 12c-14 10-30 17-44 27-3 2-4 5-5 8-1 5 2 11 0 17-4 12-11 23-18 34l-16 19c-4 6-6 13-10 18-3 3-8 3-12 6l-8 12-4 8c-2 8-1 16-4 23-2 9-7 18-12 26-2 4-6 8-10 12l-22 19c-5 5-9 12-13 18l-3 5c11 6 57 16 70 12 16-5 14-22 43-17 4 1-6 7-8 11l-6 15c-2 7 5 17-1 21-15 10-35 8-52 13-4 1-7 5-11 7-9 4-18 6-27 11-6 3-11 10-18 10-11 1-21-6-32-8-2-1-5-2-8-1-28 5-59 29-74 55-5 1-28 84-47 147-12 37-29-141-39-127-5 7-21-118 13-140zM10 669c29-31-55 58 84-57 14-12 22-29 34-43 16-16 34-31 50-48 9-10 0-19 4-29 8-23 17-46 27-68 9-18 19-35 30-52 5-8 17-15 15-25 0-6-12 3-18 3-3 1-7-2-9 0-10 13-15 29-23 43-3 4-6 7-8 12-8 15-13 31-21 47-2 4-3 10-7 12-4 1-15-5-19-8-20-15-23-49-27-72v-12c0-5 8-14 3-16s-7 9-9 14c-1 4 0 9-2 14-8 26-1-4-10 16v7c10 47 7 45 41 67l3 3c0 26-9 17-17 30s-14 28-21 42c-3 5-5 11-9 13-20 12-42 18-62 28-2 1-1 5-2 7l-13 15-3 6v7c1 4 3 8 6 11s8 4 12 5c8 2 10-3 17-5m1984 167c-31-26-49-64-76-93-34-37-74-69-108-106-21-23-2-42-9-64-17-51-37-102-61-151-18-39-42-76-64-113-11-18 59 15 77 46 5 9 13 17 18 26 16 34 28 70 44 104 4 9 7 21 16 25 10 4 33-10 41-16 45-33 52-107 60-158 1-9 15-11 17-1 18 59 7 149-66 198-3 2-7 4-7 8-1 56 18 36 36 64 19 30 31 63 47 94 6 10 10 22 19 28" fill="#0B0B24"/><path d="M1399 534a4 4 0 0 0-7 2c-3-4-12-13-25-14 0 0 8 5 4 11 0 0 12 0 11 9 0 0 14 1 18 12-1-11 11-19 11-19-5-8 6-12 6-12-6-4-2-13-2-13-11 7-15 19-16 24zm-145 85a3 3 0 0 0-2-2 3 3 0 0 0-3 1c-1-4-4-12-13-17 0 0 4 6 0 9 0 0 8 3 4 9 0 0 10 5 9 14 2-9 13-10 13-10-1-7 7-7 7-7-3-4 3-8 3-8-10 1-16 8-18 11zm194-4a5 5 0 0 0-3-5 5 5 0 0 0-6 2c-3-3-6-7-4-15 0 0-19-7-35 1 0 0 20 2 20 15 0 0 14 3 11 15 2-1 5 1 6 4v2l1-2c2-2 5-1 7 1 4-12 18-6 18-6 7-11 24 1 24 1-7-16-27-23-27-23-3 8-8 10-12 10zm-831-1c-2-3-6-3-9-2a7 7 0 0 0-3 9c-5 1-13-1-20-11 0 0-25 15-31 39 0 0 20-20 33-7 0 0 18-12 28 3 1-4 6-5 9-3l2 2v-3c-1-4 3-7 7-6-8-16 11-25 11-25-4-18 24-25 24-25-24-7-50 7-50 7 5 11 2 18-1 22z" fill="#08081E"/><path d="M1133 463a2 2 0 0 0-5-2c-1-1-2-3-1-7 0 0-10-3-17 1 0 0 10 0 9 7 0 0 7 1 6 7a2 2 0 0 1 2 2v1l1-1a2 2 0 0 1 3 0c2-5 9-2 9-2 3-5 11 0 11 0-3-7-12-11-12-11-2 4-4 5-6 5z" fill="#15162F"/><path d="M1643 758a4 4 0 0 0-3-3 4 4 0 0 0-4 2c-3-1-5-4-5-10 0 0-15-1-25 7 0 0 15-2 16 7 0 0 11 0 11 9a3 3 0 0 1 5 2v1l1-1a3 3 0 0 1 5-1c1-9 12-7 12-7 3-9 17-4 17-4-8-10-23-11-23-11-1 6-4 8-7 9z" fill="#08081E"/></g></g></svg>